<?xml version="1.0" encoding="iso-8859-1"?>
<!-- Uploaded to: SVG Repo, www.svgrepo.com, Generator: SVG Repo Mixer Tools -->
<svg fill="white" height="800px" width="800px" version="1.1" id="Layer_1" xmlns="http://www.w3.org/2000/svg" xmlns:xlink="http://www.w3.org/1999/xlink" 
	 viewBox="0 0 512 512" xml:space="preserve">
<g>
	<g>
		<path d="M355.54,181.868c-0.073-0.174-0.152-0.347-0.233-0.518l-34.977-74.149V80.692h6.759c8.691,0,15.738-7.046,15.738-15.738
			V15.738C342.828,7.046,335.781,0,327.09,0H184.908c-8.691,0-15.738,7.046-15.738,15.738v49.217
			c0,8.691,7.046,15.738,15.738,15.738h6.76v26.509l-34.977,74.149c-0.081,0.171-0.158,0.344-0.233,0.518
			c-6.08,14.195-9.162,29.223-9.162,44.665v269.73c0,8.691,7.046,15.738,15.738,15.738h185.933c8.691,0,15.738-7.046,15.738-15.738
			V226.534C364.703,211.09,361.62,196.062,355.54,181.868z M200.646,31.475h110.707v17.742H200.646V31.475z M333.229,480.525h-0.001
			H178.771V226.534c0-11.067,2.191-21.839,6.513-32.022l36.354-77.07c0.99-2.099,1.505-4.393,1.505-6.714V80.692h65.713v30.034
			c0,2.322,0.513,4.614,1.505,6.714l36.354,77.07c4.322,10.182,6.513,20.954,6.513,32.022V480.525z"/>
	</g>
</g>
</svg>