<?xml version="1.0" encoding="iso-8859-1"?>
<!-- Uploaded to: SVG Repo, www.svgrepo.com, Generator: SVG Repo Mixer Tools -->
<svg fill="white" height="800px" width="800px" version="1.1" id="Layer_1" xmlns="http://www.w3.org/2000/svg" xmlns:xlink="http://www.w3.org/1999/xlink" 
	 viewBox="0 0 511.997 511.997" xml:space="preserve">
<g>
	<g>
		<path d="M394.795,0H117.202c-7.465,0-13.281,6.475-12.484,13.897l11.823,109.949c15.332,4.398,31.412,6.632,47.981,6.632
			c14.517,0,28.784-1.78,42.372-5.174l-6.718-4.733c-5.669-3.994-7.026-11.827-3.032-17.494l35.481-50.356
			c3.994-5.669,11.827-7.026,17.494-3.032l50.356,35.479c4.052,2.855,5.886,7.67,5.153,12.255
			c19.571,20.806,49.913,33.054,82.674,33.054c2.157,0,4.311-0.07,6.461-0.177l12.516-116.403C408.076,6.475,402.259,0,394.795,0z"
			/>
	</g>
</g>
<g>
	<g>
		<path d="M388.302,168.14c-39.684,0.003-77.089-14.108-103.571-38.446c-0.183,0.137-0.373,0.27-0.557,0.406l-16.147,22.918
			c-3.994,5.669-11.827,7.026-17.494,3.032l-5.477-3.859c-24.795,10.367-52.337,15.951-80.533,15.951
			c-14.905,0-29.513-1.498-43.697-4.458l34.888,324.455c1.459,13.571,12.914,23.86,26.563,23.86h147.446
			c13.65,0,25.104-10.289,26.563-23.86l34.411-320.023C389.899,168.126,389.1,168.14,388.302,168.14z M206.971,234.617
			c0-6.934,5.621-12.555,12.555-12.555h61.599c6.934,0,12.555,5.621,12.555,12.555v61.599c0,6.934-5.621,12.555-12.555,12.555
			h-61.599c-6.934,0-12.555-5.621-12.555-12.555V234.617z M290.326,453.162l-60.2,13.056c-6.776,1.47-13.462-2.832-14.931-9.608
			l-13.056-60.2c-1.47-6.776,2.832-13.462,9.608-14.93l60.2-13.056c6.776-1.47,13.462,2.832,14.93,9.608l13.055,60.2
			C301.404,445.007,297.103,451.693,290.326,453.162z"/>
	</g>
</g>
</svg>