<?xml version="1.0" encoding="iso-8859-1"?>
<!-- Uploaded to: SVG Repo, www.svgrepo.com, Generator: SVG Repo Mixer Tools -->
<svg fill="white" height="800px" width="800px" version="1.1" id="Layer_1" xmlns="http://www.w3.org/2000/svg" xmlns:xlink="http://www.w3.org/1999/xlink" 
	 viewBox="0 0 512 512" xml:space="preserve">
<g>
	<g>
		<path d="M345.325,188.404l-38.303-81.201V84.089H204.978v23.113l-38.303,81.201c-5.467,12.764-8.286,26.506-8.286,40.391v271.34
			c0,6.553,5.312,11.865,11.865,11.865h171.491c6.553,0,11.865-5.312,11.865-11.865v-271.34
			C353.611,214.908,350.792,201.167,345.325,188.404z"/>
	</g>
</g>
<g>
	<g>
		<path d="M319.067,0H192.932c-6.393,0-11.576,5.183-11.576,11.576v28.525c0,3.792,1.833,7.149,4.651,9.261
			c1.932,1.447,4.325,2.315,6.925,2.315h126.135c2.6,0,4.993-0.868,6.925-2.315c2.819-2.111,4.651-5.467,4.651-9.261V11.576
			C330.643,5.183,325.46,0,319.067,0z"/>
	</g>
</g>
</svg>