<?xml version="1.0" encoding="iso-8859-1"?>
<!-- Uploaded to: SVG Repo, www.svgrepo.com, Generator: SVG Repo Mixer Tools -->
<svg fill="white" height="800px" width="800px" version="1.1" id="Layer_1" xmlns="http://www.w3.org/2000/svg" xmlns:xlink="http://www.w3.org/1999/xlink" 
	 viewBox="0 0 512 512" xml:space="preserve">
<g>
	<g>
		<path d="M411.185,5.436C408.079,1.976,403.648,0,398.997,0H113.003c-4.651,0-9.08,1.976-12.188,5.436
			c-3.107,3.459-4.598,8.076-4.101,12.699l49.129,456.901C148.109,496.109,165.8,512,186.995,512h138.01
			c21.194,0,38.886-15.891,41.152-36.965l49.129-456.901C415.783,13.511,414.292,8.895,411.185,5.436z M333.58,471.532
			c-0.473,4.392-4.159,7.702-8.575,7.702h-138.01c-4.416,0-8.102-3.312-8.575-7.702L145.576,166.08l-0.021-0.196
			c0.059,0.013,0.118,0.026,0.178,0.038c11.694,2.472,23.742,3.727,36.039,3.727c14.752,0,29.285-1.877,43.15-5.455l26.133,18.412
			c2.781,1.959,6.08,2.99,9.436,2.99c0.932,0,1.868-0.08,2.798-0.24c4.281-0.742,8.092-3.154,10.594-6.706l20.068-28.482
			c19.658,12.485,43.767,19.48,69.002,19.48c1.032,0,2.063-0.042,3.094-0.064L333.58,471.532z M216.972,118.513l27.874-39.561
			l39.562,27.875l-27.874,39.56L216.972,118.513z M369.588,136.652c-2.205,0.14-4.418,0.233-6.636,0.233
			c-18.449,0-35.932-4.847-50.123-13.51l7.799-11.069c5.211-7.396,3.44-17.617-3.956-22.829L250.327,42.73
			c-7.395-5.21-17.617-3.441-22.828,3.957l-46.747,66.346c-5.211,7.396-3.44,17.617,3.956,22.829l1.351,0.951
			c-1.426,0.043-2.854,0.072-4.287,0.072c-13.819,0-27.215-1.93-39.952-5.736l-10.579-98.383h249.517L369.588,136.652z"/>
	</g>
</g>
<g>
	<g>
		<path d="M291.272,207.85H210.11c-9.048,0-16.383,7.335-16.383,16.383v81.161c0,9.048,7.335,16.383,16.383,16.383h81.161
			c9.048,0,16.383-7.335,16.383-16.383v-81.161C307.654,215.186,300.319,207.85,291.272,207.85z M274.889,289.012h-48.396v-48.396
			h48.396V289.012z"/>
	</g>
</g>
<g>
	<g>
		<path d="M315.626,434.582l-17.202-79.317c-1.918-8.842-10.643-14.458-19.482-12.538l-79.317,17.202
			c-4.248,0.921-7.953,3.491-10.305,7.145c-2.352,3.653-3.155,8.092-2.235,12.338l17.202,79.317
			c1.663,7.673,8.45,12.914,15.995,12.914c1.15,0,2.319-0.121,3.487-0.376l79.317-17.202c4.247-0.921,7.953-3.491,10.305-7.145
			C315.743,443.267,316.547,438.828,315.626,434.582z M232.839,435.773l-10.258-47.296l47.295-10.257l10.258,47.296L232.839,435.773
			z"/>
	</g>
</g>
</svg>